<?xml version="1.0" encoding="UTF-8" standalone="no"?>
<svg
   width="40"
   height="40"
   viewBox="0 0 40 40"
   fill="none"
   version="1.1"
   id="svg13"
   xml:space="preserve"
   xmlns="http://www.w3.org/2000/svg"
   xmlns:svg="http://www.w3.org/2000/svg"><defs
     id="defs11" /><path
     id="rect10089"
     style="fill:#134c13;fill-opacity:1;stroke-width:1.41928;stroke-linecap:round;stroke-linejoin:round;stroke-miterlimit:57.7"
     d="m 0,23.718225 h 4.3321895 v 8.135658 H 0 Z M 0,0.68742497 H 4.3321895 V 16.252111 H 0 Z" /><path
     id="rect10095"
     style="fill:#808080;stroke-width:1.28667;stroke-linecap:round;stroke-linejoin:round;stroke-miterlimit:57.7"
     d="M 5.0563576,0 H 4.3321895 v 40 h 0.7241681 z" /><path
     id="rect17035"
     style="fill:#9e2927;stroke-width:2;stroke-linecap:round;stroke-linejoin:round;stroke-miterlimit:57.7;fill-opacity:1"
     d="M 9.3105469,1.0292969 V 8.0546875 H 17.742188 V 1.0292969 Z m 12.6484371,0 V 8.0546875 H 34.605469 V 1.0292969 Z M 9.3105469,8.7578125 c 0,2.3417965 0,4.6835935 0,7.0253905 5.6210941,0 11.2421871,0 16.8632811,0 0,-2.341797 0,-4.683594 0,-7.0253905 -5.621094,0 -11.242187,0 -16.8632811,0 z m 22.0527341,0 a 3.6552849,3.6552849 0 0 0 -3.65625,3.6542965 3.6552849,3.6552849 0 0 0 3.65625,3.65625 3.6552849,3.6552849 0 0 0 3.654297,-3.65625 3.6552849,3.6552849 0 0 0 -3.654297,-3.6542965 z m 0.0039,1.3613285 c 0.323213,0 0.5625,0.239287 0.5625,0.5625 -10e-7,0.04216 -0.0086,0.139128 -0.01563,0.230468 L 31.710938,13 c -0.02108,0.217818 -0.147012,0.34375 -0.34375,0.34375 -0.196739,0 -0.330483,-0.132958 -0.351563,-0.34375 L 30.8125,10.912109 c -0.007,-0.08432 -0.01563,-0.181288 -0.01563,-0.230468 0,-0.323213 0.240073,-0.5625 0.570313,-0.5625 z m -0.06445,3.660156 h 0.121094 c 0.259977,0 0.462891,0.204868 0.462891,0.464844 0,0.259976 -0.202914,0.46289 -0.462891,0.46289 h -0.121094 c -0.259976,0 -0.470703,-0.209941 -0.470703,-0.46289 0,-0.25295 0.210727,-0.464844 0.470703,-0.464844 z" /><path
     id="path18050"
     style="fill:#808080;stroke-width:2;stroke-linecap:round;stroke-linejoin:round;stroke-miterlimit:57.7"
     d="m 12.591797,17.224609 c -0.161607,0 -0.252026,0.06969 -0.357422,0.308594 l -2.2558594,4.763672 c -0.063237,0.126475 -0.083984,0.197314 -0.083984,0.267578 0,0.17566 0.1688764,0.337891 0.3515624,0.337891 0.168634,0 0.259838,-0.07165 0.365234,-0.310547 l 2.248047,-4.769531 c 0.07026,-0.140528 0.08398,-0.182475 0.08398,-0.259766 0,-0.175659 -0.16185,-0.337891 -0.351562,-0.337891 z m 4.216797,0 c -0.161607,0 -0.253979,0.06969 -0.359375,0.308594 l -2.253907,4.763672 c -0.06324,0.126475 -0.08594,0.197314 -0.08594,0.267578 0,0.17566 0.168877,0.337891 0.351563,0.337891 0.168632,0 0.259838,-0.07165 0.365234,-0.310547 l 2.25,-4.769531 c 0.07026,-0.140528 0.08398,-0.182475 0.08398,-0.259766 0,-0.175659 -0.161849,-0.337891 -0.351562,-0.337891 z m 11.59375,0.689453 c -1.194485,0 -1.996094,0.898787 -1.996094,1.966797 v 0.498047 c 0,0.786954 0.421471,1.828125 2.09375,1.828125 0.548057,0 0.913714,-0.105307 1.539062,-0.435547 V 20.84375 c 0.196739,-0.05621 0.294922,-0.175903 0.294922,-0.351562 0,-0.281056 -0.196673,-0.351563 -0.470703,-0.351563 h -1.230469 c -0.274028,0 -0.46289,0.06348 -0.46289,0.351563 0,0.267002 0.188862,0.351562 0.46289,0.351562 h 0.703126 v 0.484375 c -0.267003,0.119449 -0.539687,0.175781 -0.876954,0.175781 -1.082063,0 -1.349609,-0.555506 -1.349609,-1.173828 v -0.449219 c 0,-0.758849 0.511873,-1.265625 1.298828,-1.265625 0.512926,0 0.865284,0.154467 0.935547,0.400391 0.03513,0.126475 0.0627,0.373047 0.34375,0.373047 0.295108,0 0.351562,-0.195888 0.351562,-0.462891 v -0.548828 c 0,-0.281056 -0.06308,-0.462891 -0.330078,-0.462891 -0.133501,0 -0.204746,0.05598 -0.289062,0.22461 -0.295109,-0.147554 -0.638154,-0.224609 -1.017578,-0.22461 z m -10.105469,0.09766 c -0.245923,0 -0.462891,0.04943 -0.462891,0.351562 0,0.288082 0.202915,0.351563 0.462891,0.351563 h 0.105469 V 21.4043 h -0.105469 c -0.259976,0 -0.462891,0.06348 -0.462891,0.351562 0,0.147554 0.06941,0.351563 0.462891,0.351563 h 2.074219 c 0.829113,0 1.382812,-0.448514 1.382812,-1.123047 0,-0.442662 -0.238241,-0.766582 -0.74414,-1.019531 0.30916,-0.238898 0.443359,-0.471708 0.443359,-0.794922 0,-0.667506 -0.582972,-1.158203 -1.376953,-1.158203 z m 4.216797,0 c -0.274029,0 -0.462891,0.06348 -0.462891,0.351562 0,0.288082 0.202914,0.351563 0.462891,0.351563 h 0.105469 v 2.691406 h -0.105469 c -0.245924,0 -0.462891,0.0545 -0.462891,0.349609 0,0.147554 0.06941,0.351563 0.462891,0.351563 h 3.308594 v -1.06836 c 0,-0.252949 -0.0545,-0.470703 -0.34961,-0.470703 -0.281055,0 -0.351562,0.189649 -0.351562,0.470703 V 21.4043 h -1.798828 v -1.003906 h 0.597656 v 0.04883 c 0,0.259975 0.06153,0.464843 0.349609,0.464843 0.281056,0 0.345703,-0.211894 0.345703,-0.464843 V 19.65625 c 0,-0.27403 -0.08456,-0.470703 -0.351562,-0.470703 -0.288082,0 -0.34375,0.217753 -0.34375,0.470703 v 0.04883 h -0.597656 v -0.990234 h 1.644531 v 0.351562 c 0,0.25295 0.0545,0.470703 0.349609,0.470703 0.288081,0 0.351563,-0.2037 0.351563,-0.470703 v -1.054687 z m 8.923828,0 c -0.274029,0 -0.464844,0.06348 -0.464844,0.351562 0,0.288082 0.204868,0.351563 0.464844,0.351563 h 0.708984 V 21.4043 H 31.4375 c -0.274029,0 -0.464844,0.06348 -0.464844,0.351562 0,0.140528 0.07136,0.351563 0.464844,0.351563 h 2.121094 c 0.30916,0 0.464844,-0.119692 0.464844,-0.351563 0,-0.288081 -0.197842,-0.351562 -0.464844,-0.351562 h -0.708985 v -2.689453 h 0.708985 c 0.259975,0 0.464844,-0.06348 0.464844,-0.351563 0,-0.288081 -0.197842,-0.351562 -0.464844,-0.351562 z m 3.576172,0 c -0.274029,0 -0.462891,0.06348 -0.462891,0.351562 0,0.288082 0.202915,0.351563 0.462891,0.351563 h 0.105469 V 21.4043 c -0.274029,0 -0.429688,0.126719 -0.429688,0.351562 0,0.267003 0.198628,0.351563 0.472656,0.351563 h 0.90625 c 0.274029,0 0.462891,-0.08456 0.462891,-0.351563 0,-0.295107 -0.195888,-0.351562 -0.462891,-0.351562 h -0.246093 v -2.064453 l 1.818359,2.767578 h 0.697266 v -3.392578 c 0.281054,0 0.427734,-0.126719 0.427734,-0.351563 0,-0.295108 -0.216968,-0.351562 -0.462891,-0.351562 h -0.914062 c -0.274029,0 -0.462891,0.06348 -0.462891,0.351562 0,0.288082 0.202915,0.351563 0.462891,0.351563 h 0.246094 v 2.050781 l -1.8125,-2.753906 z m -15.908203,0.703125 h 0.935547 c 0.442662,0 0.708984,0.168164 0.708984,0.449218 0,0.323214 -0.34371,0.541016 -0.849609,0.541016 h -0.794922 z m 0,1.693359 h 0.949219 c 0.597242,0 0.998046,0.244789 0.998046,0.617188 0,0.252949 -0.239002,0.378906 -0.716796,0.378906 H 19.105469 Z M 9.3105469,24.2168 v 7.025391 H 30.390625 V 24.2168 Z m 3.2812501,8.466797 c -0.161607,0 -0.252026,0.06969 -0.357422,0.308594 l -2.2558594,4.763671 c -0.063237,0.126475 -0.083984,0.197315 -0.083984,0.267579 0,0.175658 0.1688764,0.335937 0.3515624,0.335937 0.168634,0 0.259838,-0.06969 0.365234,-0.308594 L 12.859375,33.2793 c 0.07026,-0.140528 0.08398,-0.182476 0.08398,-0.259766 0,-0.17566 -0.16185,-0.335937 -0.351562,-0.335937 z m 4.216797,0 c -0.161607,0 -0.253979,0.06969 -0.359375,0.308594 l -2.253907,4.763671 c -0.06324,0.126475 -0.08594,0.197315 -0.08594,0.267579 0,0.175658 0.168877,0.335937 0.351563,0.335937 0.168632,0 0.259838,-0.06969 0.365234,-0.308594 l 2.25,-4.771484 c 0.07026,-0.140528 0.08398,-0.182476 0.08398,-0.259766 0,-0.17566 -0.161849,-0.335937 -0.351562,-0.335937 z m 1.488281,0.785156 c -0.274029,0 -0.462891,0.06348 -0.462891,0.351562 0,0.288082 0.202915,0.351563 0.462891,0.351563 h 0.105469 v 2.691406 h -0.105469 c -0.245923,0 -0.462891,0.05645 -0.462891,0.351563 0,0.147554 0.06941,0.351562 0.462891,0.351562 h 3.310547 V 36.49805 c 0,-0.25295 -0.05645,-0.470703 -0.351563,-0.470703 -0.281055,0 -0.351562,0.189647 -0.351562,0.470703 v 0.365234 h -1.798828 v -1.003906 h 0.597656 v 0.04883 c 0,0.259977 0.06348,0.462891 0.351563,0.462891 0.281054,0 0.34375,-0.209941 0.34375,-0.462891 v -0.794922 c 0,-0.274028 -0.08456,-0.470703 -0.351563,-0.470703 -0.288082,0 -0.34375,0.217754 -0.34375,0.470703 v 0.04883 H 19.105469 V 34.171875 H 20.75 v 0.351563 c 0,0.252949 0.05645,0.470703 0.351562,0.470703 0.288082,0 0.351563,-0.203701 0.351563,-0.470703 V 33.46875 Z m 4.068359,0 c -0.274029,0 -0.46289,0.06348 -0.46289,0.351562 0,0.288082 0.202914,0.351563 0.46289,0.351563 h 0.105469 v 2.691406 c -0.27403,0 -0.427734,0.126718 -0.427734,0.351563 0,0.267002 0.196674,0.351562 0.470703,0.351562 h 0.90625 c 0.274029,0 0.464844,-0.08456 0.464844,-0.351562 0,-0.295109 -0.197841,-0.351563 -0.464844,-0.351563 h -0.246094 v -2.066406 l 1.820313,2.769531 h 0.695312 v -3.394531 c 0.281056,0 0.429688,-0.126718 0.429688,-0.351563 0,-0.295107 -0.21892,-0.351562 -0.464844,-0.351562 h -0.914063 c -0.274029,0 -0.46289,0.06348 -0.46289,0.351562 0,0.288082 0.202914,0.351563 0.46289,0.351563 h 0.246094 v 2.052734 l -1.8125,-2.755859 z m 4.371094,0 c -0.245924,0 -0.470703,0.0424 -0.470703,0.351562 0,0.224845 0.155659,0.351563 0.429687,0.351563 v 2.691406 c -0.267001,0 -0.429687,0.126718 -0.429687,0.351563 0,0.274028 0.217753,0.351562 0.470703,0.351562 h 1.433594 c 1.138275,0 1.86914,-0.723411 1.86914,-1.8125 v -0.330078 c 0,-1.103142 -0.786648,-1.955078 -1.8125,-1.955078 z m 0.660156,0.703125 h 0.773438 c 0.723718,0 1.166015,0.55477 1.166016,1.236328 v 0.324219 c 0,0.463741 -0.174511,1.130859 -1.158204,1.130859 h -0.78125 z" /></svg>
