<?xml version="1.0" encoding="UTF-8" standalone="no"?>
<svg width="40" height="40" viewBox="0 0 40 40" fill="none" version="1.1" xml:space="preserve" xmlns="http://www.w3.org/2000/svg">
	<defs>
		<linearGradient id="g" x1="5" y1="35" x2="35" y2="5" gradientUnits="userSpaceOnUse" >
			<stop style="stop-color:#a80000;" offset="0"/>
			<stop style="stop-color:#ff0200;" offset="1"/>
		</linearGradient>
	</defs>
	<path style="fill:url(#g)" d="m 30.656008,14.852 c 0.198,-0.616 0.242001,-0.858 0.242001,-1.144 0,-0.792 -0.594,-1.342 -1.452001,-1.342 -1.254,0 -2.046,0.858 -2.244,2.486 l -0.748,6.534 c -0.022,0.066 -0.022,0.154 -0.022,0.198 0,0.55 0.329999,0.88 0.879999,0.88 0.616,0 1.1,-0.396 1.32,-1.078 z m -4.07,11.88 c 0.946001,0 1.804,-0.858 1.804,-1.76 0,-0.66 -0.484,-1.144 -1.188,-1.144 h -0.373999 c -0.924,0 -1.804001,0.858 -1.804001,1.738 0,0.682 0.484001,1.166 1.188001,1.166 z M 24.686,12.982 c 0.22,-0.44 0.264001,-0.572 0.264001,-0.814 0,-0.55 -0.506,-1.056 -1.100001,-1.056 -0.506,0 -0.792,0.22 -1.122,0.968 l -7.062,14.916 c -0.198,0.396 -0.264,0.616 -0.264,0.836 0,0.55 0.528001,1.056 1.1,1.056 0.528,0 0.814,-0.22 1.144,-0.968 z m -6.300008,0 c 0.22,-0.44 0.263999,-0.572 0.263999,-0.814 0,-0.55 -0.506,-1.056 -1.1,-1.056 -0.506,0 -0.791999,0.22 -1.122,0.968 L 9.3659918,26.996 c -0.198,0.396 -0.264,0.616 -0.264,0.836 0,0.55 0.528,1.056 1.1000002,1.056 0.528,0 0.814,-0.22 1.144,-0.968 z M 20,0 C 8.972083,0 0,8.9720827 0,20 0,31.027917 8.972083,40 20,40 31.027917,40 40,31.027917 40,20 40,8.9720827 31.027917,0 20,0 Z m 0,3 c 9.406598,0 17,7.593402 17,17 0,9.406598 -7.593402,17 -17,17 C 10.593402,37 3,29.406598 3,20 3,10.593402 10.593402,3 20,3 Z" />
</svg>
