<?xml version="1.0" encoding="UTF-8" standalone="no"?>
<svg
   width="40"
   height="40"
   viewBox="0 0 40 40"
   fill="none"
   version="1.1"
   id="svg13"
   xml:space="preserve"
   xmlns:xlink="http://www.w3.org/1999/xlink"
   xmlns="http://www.w3.org/2000/svg"
   xmlns:svg="http://www.w3.org/2000/svg"><defs
     id="defs11"><linearGradient
       id="linearGradient33582"><stop
         style="stop-color:#eaf8ff;stop-opacity:1;"
         offset="0"
         id="stop33578" /><stop
         style="stop-color:#ecf8ff;stop-opacity:0;"
         offset="1"
         id="stop33580" /></linearGradient><linearGradient
       id="linearGradient7922"><stop
         style="stop-color:#666666;stop-opacity:1;"
         offset="0"
         id="stop7918" /><stop
         style="stop-color:#999999;stop-opacity:1;"
         offset="1"
         id="stop7920" /></linearGradient><linearGradient
       id="linearGradient7167"><stop
         style="stop-color:#403030;stop-opacity:1;"
         offset="0"
         id="stop7163" /><stop
         style="stop-color:#ff0200;stop-opacity:1;"
         offset="1"
         id="stop7165" /></linearGradient><linearGradient
       id="linearGradient6325"><stop
         style="stop-color:#207f20;stop-opacity:1;"
         offset="0"
         id="stop6321" /><stop
         style="stop-color:#a9ff40;stop-opacity:1;"
         offset="1"
         id="stop6323" /></linearGradient><linearGradient
       xlink:href="#linearGradient6325"
       id="linearGradient6327"
       x1="0"
       y1="43.574112"
       x2="40"
       y2="3.5741127"
       gradientUnits="userSpaceOnUse"
       gradientTransform="translate(0,-3.5741127)" /><linearGradient
       xlink:href="#linearGradient7167"
       id="linearGradient7169"
       x1="2.3105469"
       y1="40.558594"
       x2="42.310547"
       y2="0.55859518"
       gradientUnits="userSpaceOnUse"
       gradientTransform="translate(-2.3105469,-0.55859518)" /><linearGradient
       xlink:href="#linearGradient7922"
       id="linearGradient7924"
       x1="0"
       y1="40"
       x2="40"
       y2="0"
       gradientUnits="userSpaceOnUse"
       gradientTransform="translate(1)" /><linearGradient
       xlink:href="#linearGradient7922"
       id="linearGradient9806"
       gradientUnits="userSpaceOnUse"
       x1="2.3105469"
       y1="40.558594"
       x2="42.310547"
       y2="0.55859518"
       gradientTransform="translate(-2.3105469,-0.55859518)" /><linearGradient
       xlink:href="#linearGradient33582"
       id="linearGradient33584"
       x1="0"
       y1="0"
       x2="25"
       y2="25"
       gradientUnits="userSpaceOnUse" /></defs><path
     id="rect10002"
     style="fill:#3c3f41;stroke-width:2;stroke-linecap:round;stroke-linejoin:round;stroke-miterlimit:57.7"
     d="M 0,0 H 40 V 40 H 0 Z" /><path
     id="rect8671"
     style="fill:#2b2b2b;stroke-width:2;stroke-linecap:round;stroke-linejoin:round;stroke-miterlimit:57.7"
     d="M 1,5 H 39 V 39 H 1 Z" /><rect
     style="fill:url(#linearGradient33584);fill-opacity:1;stroke-width:2;stroke-linecap:round;stroke-linejoin:round;stroke-miterlimit:57.7;opacity:0.25"
     id="rect33576"
     width="40"
     height="40"
     x="0"
     y="0" /><path
     id="rect10089"
     style="fill:url(#linearGradient6327);fill-opacity:1;stroke-width:1.41928;stroke-linecap:round;stroke-linejoin:round;stroke-miterlimit:57.7"
     d="m 2,23 h 3 v 8 H 2 Z M 2,8 h 3 v 8 H 2 Z" /><path
     id="rect17035"
     style="fill:url(#linearGradient7169);fill-opacity:1;stroke-width:2;stroke-linecap:round;stroke-linejoin:round;stroke-miterlimit:57.7"
     d="m 7,9 v 6 H 24 V 9 Z M 29.052734,8.1992173 c -2.018749,-5.331e-4 -3.655704,1.6355475 -3.65625,3.6542967 -5.33e-4,2.019512 1.636738,3.656783 3.65625,3.65625 2.018749,-5.46e-4 3.65483,-1.637501 3.654297,-3.65625 C 32.706485,9.8355278 31.07072,8.1997626 29.052734,8.1992173 Z m 0.0039,1.3613285 c 0.323213,0 0.5625,0.239287 0.5625,0.5625002 -10e-7,0.04216 -0.0086,0.139128 -0.01563,0.230468 l -0.203113,2.087891 c -0.02108,0.217818 -0.147012,0.34375 -0.34375,0.34375 -0.196739,0 -0.330483,-0.132958 -0.351563,-0.34375 l -0.203125,-2.087891 c -0.007,-0.08432 -0.01563,-0.181288 -0.01563,-0.230468 0,-0.3232132 0.240073,-0.5625002 0.570313,-0.5625002 z m -0.06445,3.6601562 h 0.121094 c 0.259977,0 0.462891,0.204868 0.462891,0.464844 0,0.259976 -0.202914,0.46289 -0.462891,0.46289 h -0.121094 c -0.259976,0 -0.470703,-0.209941 -0.470703,-0.46289 0,-0.25295 0.210727,-0.464844 0.470703,-0.464844 z" /><path
     id="path18050"
     style="fill:url(#linearGradient9806);fill-opacity:1;stroke-width:2;stroke-linecap:round;stroke-linejoin:round;stroke-miterlimit:57.7"
     d="m 10.28125,16.666014 c -0.161607,0 -0.252026,0.06969 -0.3574219,0.308594 L 7.6679687,21.73828 c -0.063237,0.126475 -0.083984,0.197314 -0.083984,0.267578 0,0.17566 0.1688764,0.337891 0.3515624,0.337891 0.168634,0 0.259838,-0.07165 0.365234,-0.310547 l 2.2480469,-4.769531 c 0.07026,-0.140528 0.08398,-0.182475 0.08398,-0.259766 0,-0.175659 -0.16185,-0.337891 -0.351562,-0.337891 z m 4.216797,0 c -0.161607,0 -0.253979,0.06969 -0.359375,0.308594 l -2.253907,4.763672 c -0.06324,0.126475 -0.08594,0.197314 -0.08594,0.267578 0,0.17566 0.168877,0.337891 0.351563,0.337891 0.168632,0 0.259838,-0.07165 0.365234,-0.310547 l 2.25,-4.769531 c 0.07026,-0.140528 0.08398,-0.182475 0.08398,-0.259766 0,-0.175659 -0.161849,-0.337891 -0.351562,-0.337891 z m 11.59375,0.689453 c -1.194485,0 -1.996094,0.898787 -1.996094,1.966797 v 0.498047 c 0,0.786954 0.421471,1.828125 2.09375,1.828125 0.548057,0 0.913714,-0.105307 1.539062,-0.435547 v -0.927734 c 0.196739,-0.05621 0.294922,-0.175903 0.294922,-0.351562 0,-0.281056 -0.196673,-0.351563 -0.470703,-0.351563 h -1.230469 c -0.274028,0 -0.46289,0.06348 -0.46289,0.351563 0,0.267002 0.188862,0.351562 0.46289,0.351562 h 0.703126 v 0.484375 c -0.267003,0.119449 -0.539687,0.175781 -0.876954,0.175781 -1.082063,0 -1.349609,-0.555506 -1.349609,-1.173828 v -0.449219 c 0,-0.758849 0.511873,-1.265625 1.298828,-1.265625 0.512926,0 0.865284,0.154467 0.935547,0.400391 0.03513,0.126475 0.0627,0.373047 0.34375,0.373047 0.295108,0 0.351562,-0.195888 0.351562,-0.462891 v -0.548828 c 0,-0.281056 -0.06308,-0.462891 -0.330078,-0.462891 -0.133501,0 -0.204746,0.05598 -0.289062,0.22461 -0.295109,-0.147554 -0.638154,-0.224609 -1.017578,-0.22461 z m -10.105469,0.09766 c -0.245923,0 -0.462891,0.04943 -0.462891,0.351562 0,0.288082 0.202915,0.351563 0.462891,0.351563 h 0.105469 v 2.689453 h -0.105469 c -0.259976,0 -0.462891,0.06348 -0.462891,0.351562 0,0.147554 0.06941,0.351563 0.462891,0.351563 h 2.074219 c 0.829113,0 1.382812,-0.448514 1.382812,-1.123047 0,-0.442662 -0.238241,-0.766582 -0.74414,-1.019531 0.30916,-0.238898 0.443359,-0.471708 0.443359,-0.794922 0,-0.667506 -0.582972,-1.158203 -1.376953,-1.158203 z m 4.216797,0 c -0.274029,0 -0.462891,0.06348 -0.462891,0.351562 0,0.288082 0.202914,0.351563 0.462891,0.351563 h 0.105469 v 2.691406 h -0.105469 c -0.245924,0 -0.462891,0.0545 -0.462891,0.349609 0,0.147554 0.06941,0.351563 0.462891,0.351563 h 3.308594 v -1.06836 c 0,-0.252949 -0.0545,-0.470703 -0.34961,-0.470703 -0.281055,0 -0.351562,0.189649 -0.351562,0.470703 v 0.365235 h -1.798828 v -1.003906 h 0.597656 v 0.04883 c 0,0.259975 0.06153,0.464843 0.349609,0.464843 0.281056,0 0.345703,-0.211894 0.345703,-0.464843 v -0.792974 c 0,-0.27403 -0.08456,-0.470703 -0.351562,-0.470703 -0.288082,0 -0.34375,0.217753 -0.34375,0.470703 v 0.04883 h -0.597656 v -0.990234 h 1.644531 v 0.351562 c 0,0.25295 0.0545,0.470703 0.349609,0.470703 0.288081,0 0.351563,-0.2037 0.351563,-0.470703 v -1.054687 z m 8.923828,0 c -0.274029,0 -0.464844,0.06348 -0.464844,0.351562 0,0.288082 0.204868,0.351563 0.464844,0.351563 h 0.708984 v 2.689453 h -0.708984 c -0.274029,0 -0.464844,0.06348 -0.464844,0.351562 0,0.140528 0.07136,0.351563 0.464844,0.351563 h 2.121094 c 0.30916,0 0.464844,-0.119692 0.464844,-0.351563 0,-0.288081 -0.197842,-0.351562 -0.464844,-0.351562 h -0.708985 v -2.689453 h 0.708985 c 0.259975,0 0.464844,-0.06348 0.464844,-0.351563 0,-0.288081 -0.197842,-0.351562 -0.464844,-0.351562 z m 3.576172,0 c -0.274029,0 -0.462891,0.06348 -0.462891,0.351562 0,0.288082 0.202915,0.351563 0.462891,0.351563 h 0.105469 v 2.689453 c -0.274029,0 -0.429688,0.126719 -0.429688,0.351562 0,0.267003 0.198628,0.351563 0.472656,0.351563 h 0.90625 c 0.274029,0 0.462891,-0.08456 0.462891,-0.351563 0,-0.295107 -0.195888,-0.351562 -0.462891,-0.351562 h -0.246093 v -2.064453 l 1.818359,2.767578 h 0.697266 v -3.392578 c 0.281054,0 0.427734,-0.126719 0.427734,-0.351563 0,-0.295108 -0.216968,-0.351562 -0.462891,-0.351562 h -0.914062 c -0.274029,0 -0.462891,0.06348 -0.462891,0.351562 0,0.288082 0.202915,0.351563 0.462891,0.351563 h 0.246094 v 2.050781 l -1.8125,-2.753906 z m -15.908203,0.703125 h 0.935547 c 0.442662,0 0.708984,0.168164 0.708984,0.449218 0,0.323214 -0.34371,0.541016 -0.849609,0.541016 h -0.794922 z m 0,1.693359 h 0.949219 c 0.597242,0 0.998046,0.244789 0.998046,0.617188 0,0.252949 -0.239002,0.378906 -0.716796,0.378906 H 16.794922 Z M 7,24 v 6 h 21 v -6 z m 3.28125,7.691406 c 0.161607,0 -0.252026,0.06969 -0.3574219,0.308594 l -2.2558594,4.763671 c -0.063237,0.126475 -0.083984,0.197315 -0.083984,0.267579 0,0.175658 0.1688764,0.335937 0.3515624,0.335937 0.168634,0 0.259838,-0.06969 0.365234,-0.308594 l 2.2480469,-4.771484 c 0.07026,-0.140528 0.08398,-0.182476 0.08398,-0.259766 0,-0.17566 -0.541274,-0.335937 -0.351562,-0.335937 z m 4.216797,0 c -0.161607,0 -0.253979,0.06969 -0.359375,0.308594 l -2.253907,4.763671 c -0.06324,0.126475 -0.08594,0.197315 -0.08594,0.267579 0,0.175658 0.168877,0.335937 0.351563,0.335937 0.168632,0 0.259838,-0.06969 0.365234,-0.308594 l 2.25,-4.771484 c 0.07026,-0.140528 0.08398,-0.182476 0.08398,-0.259766 0,-0.17566 -0.161849,-0.335937 -0.351562,-0.335937 z m 1.488281,0.785156 c -0.274029,0 -0.462891,0.06348 -0.462891,0.351562 0,0.288082 0.202915,0.351563 0.462891,0.351563 h 0.105469 v 2.691406 h -0.105469 c -0.245923,0 -0.462891,0.05645 -0.462891,0.351563 0,0.147554 0.06941,0.351562 0.462891,0.351562 h 3.310547 v -1.068359 c 0,-0.25295 -0.05645,-0.470703 -0.351563,-0.470703 -0.281055,0 -0.351562,0.189647 -0.351562,0.470703 v 0.365234 h -1.798828 v -1.003906 h 0.597656 v 0.04883 c 0,0.259977 0.06348,0.462891 0.351563,0.462891 0.281054,0 0.34375,-0.209941 0.34375,-0.462891 v -0.794922 c 0,-0.274028 -0.08456,-0.470703 -0.351563,-0.470703 -0.288082,0 -0.34375,0.217754 -0.34375,0.470703 v 0.04883 h -0.597656 v -0.990241 h 1.644531 v 0.351563 c 0,0.252949 0.05645,0.470703 0.351562,0.470703 0.288082,0 0.351563,-0.203701 0.351563,-0.470703 v -1.054688 z m 4.068359,0 c -0.274029,0 -0.46289,0.06348 -0.46289,0.351562 0,0.288082 0.202914,0.351563 0.46289,0.351563 h 0.105469 v 2.691406 c -0.27403,0 -0.427734,0.126718 -0.427734,0.351563 0,0.267002 0.196674,0.351562 0.470703,0.351562 h 0.90625 c 0.274029,0 0.464844,-0.08456 0.464844,-0.351562 0,-0.295109 -0.197841,-0.351563 -0.464844,-0.351563 h -0.246094 v -2.066406 l 1.820313,2.769531 h 0.695312 v -3.394531 c 0.281056,0 0.429688,-0.126718 0.429688,-0.351563 0,-0.295107 -0.21892,-0.351562 -0.464844,-0.351562 h -0.914063 c -0.274029,0 -0.46289,0.06348 -0.46289,0.351562 0,0.288082 0.202914,0.351563 0.46289,0.351563 h 0.246094 v 2.052734 l -1.8125,-2.755859 z m 4.371094,0 c -0.245924,0 -0.470703,0.0424 -0.470703,0.351562 0,0.224845 0.155659,0.351563 0.429687,0.351563 v 2.691406 c -0.267001,0 -0.429687,0.126718 -0.429687,0.351563 0,0.274028 0.217753,0.351562 0.470703,0.351562 h 1.433594 c 1.138275,0 1.86914,-0.723411 1.86914,-1.8125 V 34.43164 c 0,-1.103142 -0.786648,-1.955078 -1.8125,-1.955078 z m 0.660156,0.703125 h 0.773438 c 0.723718,0 1.166016,0.55477 1.166016,1.236328 v 0.324219 c 0,0.463741 -0.174511,1.130859 -1.158204,1.130859 h -0.78125 z" /><path
     id="path9798"
     style="fill:url(#linearGradient7924);fill-opacity:1;stroke-width:2;stroke-linecap:round;stroke-linejoin:round;stroke-miterlimit:57.7"
     d="M 6,5 H 5 v 34 h 1 z" /><path
     id="rect11912"
     style="fill:#268dff;fill-opacity:1;stroke-width:2;stroke-linecap:round;stroke-linejoin:round;stroke-miterlimit:57.7"
     d="M 1 1 L 1 4 L 4 4 L 4 1 L 1 1 z M 2 2 L 3 2 L 3 3 L 2 3 L 2 2 z " /></svg>
